<svg width="37" height="37" viewBox="0 0 37 37" fill="none" xmlns="http://www.w3.org/2000/svg">
<path d="M33.3667 13.65H26.1018L19.4588 3.70066C19.1707 3.27599 18.6853 3.03333 18.2 3.03333C17.7147 3.03333 17.2293 3.27599 16.9412 3.71583L10.2982 13.65H3.03333C2.19916 13.65 1.51666 14.3325 1.51666 15.1667C1.51666 15.3032 1.51666 15.4397 1.57733 15.5762L5.42966 29.6357C5.7785 30.9097 6.94633 31.85 8.34166 31.85H28.0583C29.4537 31.85 30.6215 30.9097 30.9855 29.6357L34.8378 15.5762L34.8833 15.1667C34.8833 14.3325 34.2008 13.65 33.3667 13.65ZM18.2 7.27999L22.4467 13.65H13.9533L18.2 7.27999ZM28.0583 28.8167H8.34166L5.02016 16.6833H31.395L28.0583 28.8167ZM18.2 19.7167C16.5317 19.7167 15.1667 21.0817 15.1667 22.75C15.1667 24.4183 16.5317 25.7833 18.2 25.7833C19.8683 25.7833 21.2333 24.4183 21.2333 22.75C21.2333 21.0817 19.8683 19.7167 18.2 19.7167Z" fill="white"/>
</svg>
